<svg xmlns="http://www.w3.org/2000/svg" xmlns:xlink="http://www.w3.org/1999/xlink" xmlns:serif="http://www.serif.com/" version="1.1" width="100%" height="100%" viewBox="0 0 2084 2084" xml:space="preserve" style="fill-rule:evenodd;clip-rule:evenodd;stroke-linejoin:round;stroke-miterlimit:2;">
    <circle cx="1694.98" cy="1666.67" r="104.167" />
    <circle cx="1041.67" cy="1041.67" r="729.167" />
    <path d="M687.5,1495.59l0,-553.67c-0,-93.931 37.314,-184.015 103.733,-250.434c66.419,-66.419 156.503,-103.733 250.434,-103.733l0.008,-0c93.929,-0 184.01,37.313 250.428,103.73c66.417,66.418 103.73,156.5 103.73,250.428l0,553.679l-179.451,0l-0,-304.96l-348.39,0l0,304.96l-180.492,0Zm179.167,-480.754l350,0l-0,-79.166c-0,-94.349 -76.485,-170.834 -170.834,-170.834l-8.333,0c-94.349,0 -170.833,76.485 -170.833,170.834l-0,79.166Z" style="fill:#fff;" />
</svg>